<svg xmlns="http://www.w3.org/2000/svg" xmlns:xlink="http://www.w3.org/1999/xlink" id="Layer_1" x="0px" y="0px" width="186px" height="43.625px" viewBox="0 0 186 43.625" xml:space="preserve">
<g>
	<g>
		<path fill-rule="evenodd" clip-rule="evenodd" fill="#FFFFFF" d="M180.935,14.94h0.49c0.07,0,0.14,0.03,0.22,0.08    s0.13,0.15,0.13,0.3c0,0.14-0.05,0.25-0.13,0.32c-0.08,0.08-0.16,0.11-0.23,0.11h-0.48V14.94z M182.225,15.77    c0.08-0.12,0.12-0.27,0.12-0.45c0-0.17-0.04-0.32-0.12-0.43c-0.08-0.12-0.18-0.2-0.29-0.26c-0.12-0.05-0.22-0.08-0.32-0.08h-1.21    v2.41h0.53v-0.82h0.51l0.42,0.82h0.58l-0.49-0.94C182.055,15.96,182.145,15.88,182.225,15.77z"></path>
		<path fill-rule="evenodd" clip-rule="evenodd" fill="#FFFFFF" d="M183.015,16.78c-0.18,0.3-0.41,0.54-0.71,0.72    c-0.3,0.18-0.63,0.27-0.99,0.27c-0.37,0-0.7-0.09-0.99-0.27c-0.3-0.18-0.54-0.42-0.72-0.72c-0.17-0.3-0.26-0.63-0.26-1    c0-0.36,0.09-0.69,0.26-0.99c0.18-0.3,0.42-0.54,0.72-0.72c0.29-0.18,0.62-0.27,0.99-0.27c0.36,0,0.69,0.09,0.99,0.27    c0.3,0.18,0.53,0.42,0.71,0.72c0.18,0.3,0.26,0.63,0.26,0.99C183.275,16.15,183.195,16.48,183.015,16.78z M183.695,14.77    c-0.13-0.31-0.31-0.59-0.55-0.83c-0.24-0.24-0.51-0.43-0.83-0.56c-0.31-0.14-0.64-0.21-1-0.21s-0.7,0.07-1.01,0.21    c-0.31,0.13-0.59,0.32-0.82,0.56c-0.24,0.24-0.43,0.52-0.56,0.83c-0.14,0.32-0.2,0.65-0.2,1.01c0,0.37,0.06,0.7,0.2,1.02    c0.13,0.31,0.32,0.59,0.56,0.83c0.23,0.24,0.51,0.43,0.82,0.56c0.31,0.14,0.65,0.21,1.01,0.21s0.69-0.07,1-0.21    c0.32-0.13,0.59-0.32,0.83-0.56c0.24-0.24,0.42-0.52,0.55-0.83c0.14-0.32,0.21-0.65,0.21-1.02    C183.905,15.42,183.835,15.09,183.695,14.77z"></path>
		<polygon fill="#FFFFFF" points="85.275,23.38 73.255,13.44 73.125,13.34 72.335,14.32 86.525,26.07 86.525,13.4 85.275,13.4   "></polygon>
		<polygon fill="#FFFFFF" points="71.545,32 72.795,32 72.795,22.02 84.815,31.97 84.935,32.07 85.735,31.09 71.545,19.33   "></polygon>
		<polygon fill="#FFFFFF" points="93.345,27.87 91.845,31.59 92.995,32.05 94.155,29.13 104.325,29.13 105.505,32.05 106.655,31.59     105.165,27.87   "></polygon>
		<path fill-rule="evenodd" clip-rule="evenodd" fill="#FFFFFF" d="M96.995,22.07l2.26-5.97l2.25,5.97H96.995z M99.525,13.5    l-0.04-0.1h-0.47l-3.77,9.71l-0.09,0.22h8.19L99.525,13.5z"></path>
		<polygon fill="#FFFFFF" points="108.355,14.66 113.695,14.66 113.695,32 114.945,32 114.945,14.66 120.275,14.66 120.275,13.4     108.355,13.4   "></polygon>
		<polygon fill="#FFFFFF" points="134.735,13.4 126.555,13.4 126.555,14.66 132.765,14.66 125.085,31.53 126.255,32.06     134.635,13.63   "></polygon>
		<polygon fill="#FFFFFF" points="140.735,13.87 139.595,13.35 131.185,31.78 131.085,32 140.685,32 140.685,30.74 133.055,30.74     140.675,14.02   "></polygon>
		<polygon fill="#FFFFFF" points="157.565,14.41 157.005,13.35 148.345,17.84 148.345,13.4 147.085,13.4 147.085,19.97     157.425,14.49   "></polygon>
		<polygon fill="#FFFFFF" points="153.115,21.97 147.175,24.99 147.085,25.03 147.085,32 148.345,32 148.345,25.83 152.705,23.7     157.605,31.93 157.685,32.06 158.735,31.43 153.185,22.1   "></polygon>
		<polygon fill="#FFFFFF" points="164.725,27.87 163.225,31.59 164.375,32.05 165.535,29.13 175.705,29.13 176.895,32.05     178.035,31.59 176.545,27.87   "></polygon>
		<path fill-rule="evenodd" clip-rule="evenodd" fill="#FFFFFF" d="M168.375,22.07l2.26-5.97l2.25,5.97H168.375z M170.905,13.5    l-0.04-0.1h-0.47l-3.77,9.71l-0.09,0.22h8.19L170.905,13.5z"></path>
	</g>
	<g>
		<g>
			<polygon fill="#9AF200" points="9.875,28.68 10.585,29.53 17.745,23.56 23.755,23.56 23.755,31.24 24.845,31.24 24.845,23.56      27.355,23.56 27.355,35.56 28.455,35.56 28.455,22.45 17.355,22.45    "></polygon>
			<polygon fill="#9AF200" points="34.575,22.45 34.575,35.56 35.675,35.56 35.675,23.56 38.185,23.56 38.185,31.24 39.285,31.24      39.285,23.56 45.285,23.56 52.455,29.53 53.165,28.68 45.685,22.45    "></polygon>
			<path fill="#9AF200" d="M47.915,13.66h-13.03c-0.24-1.45-1.38-2.59-2.82-2.83V3.49h-1.1v7.34c-1.43,0.24-2.58,1.38-2.81,2.83     h-13.03L2.375,24.41l0.71,0.85l12.44-10.49h13.69v-0.56c0-1.28,1.03-2.32,2.3-2.32c1.28,0,2.31,1.04,2.31,2.32v0.56h13.69     l12.44,10.49l0.71-0.85L47.915,13.66z"></path>
		</g>
		<path fill-rule="evenodd" clip-rule="evenodd" fill="#9AF200" d="M46.625,19.63c-0.41,0-0.74-0.34-0.74-0.75    c0-0.42,0.33-0.76,0.74-0.76c0.42,0,0.75,0.34,0.75,0.76C47.375,19.29,47.045,19.63,46.625,19.63z M32.265,39.88    c0,0.42-0.33,0.76-0.75,0.76c-0.41,0-0.74-0.34-0.74-0.76c0-0.41,0.33-0.75,0.74-0.75C31.935,39.13,32.265,39.47,32.265,39.88z     M16.415,19.63c-0.42,0-0.75-0.34-0.75-0.75c0-0.42,0.33-0.76,0.75-0.76c0.41,0,0.75,0.34,0.75,0.76    C17.165,19.29,16.825,19.63,16.415,19.63z M48.385,19.35c0.04-0.16,0.09-0.31,0.09-0.47c0-1.03-0.83-1.87-1.85-1.87    c-0.72,0-1.32,0.43-1.63,1.04h-14.77h-12.18c-0.3-0.61-0.91-1.04-1.63-1.04c-1.02,0-1.85,0.84-1.85,1.87    c0,0.16,0.05,0.31,0.09,0.46l-8.84,7.38l0.7,0.85l8.73-7.28c0.32,0.27,0.72,0.45,1.17,0.45c0.92,0,1.65-0.69,1.79-1.58h12.02h0.74    v18.97c-0.74,0.24-1.29,0.92-1.29,1.75c0,1.03,0.82,1.87,1.84,1.87s1.85-0.84,1.85-1.87c0-0.83-0.55-1.51-1.3-1.75V19.16h12.77    c0.14,0.89,0.87,1.58,1.79,1.58c0.45,0,0.85-0.18,1.17-0.45l8.73,7.28l0.7-0.85L48.385,19.35z"></path>
	</g>
</g>
</svg>